<svg width="1440" height="820" viewBox="0 0 1440 820" fill="none" xmlns="http://www.w3.org/2000/svg">
  <rect width="1440" height="820" fill="#070f1d"/>
  <rect y="0" width="1440" height="58" fill="#0d1728"/>
  <text x="34" y="37" fill="#f8fafc" font-family="Segoe UI, Arial" font-size="22" font-weight="800">ThreatLens</text>
  <text x="178" y="36" fill="#93c5fd" font-family="Segoe UI, Arial" font-size="15">Dashboard</text>
  <text x="285" y="36" fill="#cbd5e1" font-family="Segoe UI, Arial" font-size="15">Lookup</text>
  <text x="370" y="36" fill="#cbd5e1" font-family="Segoe UI, Arial" font-size="15">Watchlist</text>
  <text x="470" y="36" fill="#cbd5e1" font-family="Segoe UI, Arial" font-size="15">Cases</text>
  <text x="150" y="112" fill="#f8fafc" font-family="Segoe UI, Arial" font-size="34" font-weight="800">Threat Intelligence Overview</text>
  <text x="150" y="142" fill="#93c5fd" font-family="Segoe UI, Arial" font-size="16">IOC reputation, OSINT enrichment, MITRE mapping and investigation workflow.</text>
  <g font-family="Segoe UI, Arial">
    <rect x="150" y="182" width="230" height="105" rx="14" fill="#101c2e" stroke="#263a57"/>
    <text x="178" y="225" fill="#38bdf8" font-size="17">Total IOCs</text><text x="178" y="260" fill="#fff" font-size="34" font-weight="800">126</text>
    <rect x="400" y="182" width="230" height="105" rx="14" fill="#101c2e" stroke="#263a57"/>
    <text x="428" y="225" fill="#ef4444" font-size="17">High risk</text><text x="428" y="260" fill="#fff" font-size="34" font-weight="800">18</text>
    <rect x="650" y="182" width="230" height="105" rx="14" fill="#101c2e" stroke="#263a57"/>
    <text x="678" y="225" fill="#f59e0b" font-size="17">Watchlist</text><text x="678" y="260" fill="#fff" font-size="34" font-weight="800">11</text>
    <rect x="900" y="182" width="230" height="105" rx="14" fill="#101c2e" stroke="#263a57"/>
    <text x="928" y="225" fill="#60a5fa" font-size="17">Open cases</text><text x="928" y="260" fill="#fff" font-size="34" font-weight="800">5</text>
  </g>
  <rect x="150" y="325" width="530" height="330" rx="16" fill="#101c2e" stroke="#263a57"/>
  <text x="180" y="365" fill="#f8fafc" font-family="Segoe UI, Arial" font-size="21" font-weight="700">Risk by country</text>
  <circle cx="410" cy="500" r="95" fill="#2563eb"/><path d="M410 405 A95 95 0 0 1 493 546 L410 500 Z" fill="#ef4444"/><path d="M410 500 L493 546 A95 95 0 0 1 340 568 Z" fill="#f59e0b"/>
  <text x="545" y="470" fill="#cbd5e1" font-family="Segoe UI, Arial" font-size="15">US · 44</text><text x="545" y="505" fill="#cbd5e1" font-family="Segoe UI, Arial" font-size="15">DE · 21</text><text x="545" y="540" fill="#cbd5e1" font-family="Segoe UI, Arial" font-size="15">NL · 17</text>
  <rect x="710" y="325" width="580" height="330" rx="16" fill="#101c2e" stroke="#263a57"/>
  <text x="740" y="365" fill="#f8fafc" font-family="Segoe UI, Arial" font-size="21" font-weight="700">Latest enriched IOCs</text>
  <g font-family="Segoe UI, Arial" font-size="15">
    <text x="740" y="420" fill="#93c5fd">Indicator</text><text x="955" y="420" fill="#93c5fd">Risk</text><text x="1055" y="420" fill="#93c5fd">MITRE</text>
    <line x1="740" y1="438" x2="1250" y2="438" stroke="#263a57"/>
    <text x="740" y="478" fill="#f8fafc">203.0.113.77</text><text x="955" y="478" fill="#ef4444">89</text><text x="1055" y="478" fill="#cbd5e1">T1071</text>
    <text x="740" y="528" fill="#f8fafc">phishing-demo.example</text><text x="955" y="528" fill="#f59e0b">66</text><text x="1055" y="528" fill="#cbd5e1">T1566</text>
    <text x="740" y="578" fill="#f8fafc">198.51.100.30</text><text x="955" y="578" fill="#22c55e">22</text><text x="1055" y="578" fill="#cbd5e1">T1595</text>
  </g>
</svg>
